<?xml version="1.0" encoding="UTF-8"?>
<svg id="Capa_1" data-name="Capa 1" xmlns="http://www.w3.org/2000/svg" viewBox="0 0 824.8 276.47">
  <defs>
    <style>
      .cls-1 {
        fill: #fff;
        stroke-width: 0px;
      }
    </style>
  </defs>
  <g>
    <path class="cls-1" d="m171.82,55.01c11.49,0,20.8-9.31,20.8-20.8s-9.31-20.79-20.8-20.79-20.79,9.31-20.79,20.79,9.31,20.8,20.79,20.8Z"/>
    <path class="cls-1" d="m107.1,88.2c-2.63,2.69-3.92,5.24-3.81,7.58.09,1.85,1.03,3.55,2.81,5.06,1.41,1.19,2.94,1.8,4.55,1.8,3.57,0,7.04-2.98,10.26-6.2,2.16-2.16,21.91-21.07,50.9-21.07s48.75,18.91,50.9,21.07c3.22,3.22,6.7,6.2,10.26,6.2,1.61,0,3.15-.6,4.56-1.8,1.77-1.5,2.72-3.2,2.8-5.05.1-2.34-1.18-4.9-3.82-7.58-18.72-19.08-40.49-28.76-64.71-28.76s-46,9.68-64.72,28.76Z"/>
    <path class="cls-1" d="m76.39,119.82c0-11.49-9.31-20.8-20.79-20.8s-20.8,9.31-20.8,20.8,9.31,20.79,20.8,20.79,20.79-9.31,20.79-20.79Z"/>
    <path class="cls-1" d="m114.1,188.35c1.97,0,3.76-.94,5.34-2.81,4.77-5.64-1.19-11.61-4.41-14.82-2.15-2.16-21.06-21.91-21.06-50.9s18.91-48.75,21.06-50.9c3.21-3.21,9.18-9.17,4.4-14.81-3.39-4.01-7.81-3.73-12.63,1.01-19.09,18.71-28.77,40.48-28.77,64.71s9.68,46.01,28.77,64.72c2.58,2.53,5.04,3.81,7.3,3.81Z"/>
    <path class="cls-1" d="m137.11,221.45c-11.49,0-20.79,9.31-20.79,20.8s9.31,20.8,20.79,20.8,20.8-9.31,20.8-20.8-9.31-20.8-20.8-20.8Z"/>
    <path class="cls-1" d="m201.82,188.26c2.63-2.68,3.92-5.23,3.81-7.58-.09-1.85-1.03-3.55-2.81-5.05-1.41-1.19-2.94-1.8-4.55-1.8-3.57,0-7.04,2.98-10.26,6.2-2.15,2.16-21.89,21.06-50.9,21.06s-48.74-18.91-50.9-21.06c-3.22-3.22-6.69-6.2-10.26-6.2-1.61,0-3.14.61-4.55,1.8-1.78,1.5-2.72,3.2-2.81,5.05-.11,2.35,1.17,4.9,3.81,7.58,18.71,19.09,40.49,28.77,64.71,28.77s46.01-9.68,64.72-28.77Z"/>
    <path class="cls-1" d="m253.34,135.85c-11.49,0-20.8,9.31-20.8,20.8s9.31,20.79,20.8,20.79,20.79-9.3,20.79-20.79-9.3-20.8-20.79-20.8Z"/>
    <path class="cls-1" d="m189.49,90.92c-4.77,5.64,1.19,11.61,4.4,14.81,2.15,2.16,21.07,21.91,21.07,50.91s-18.91,48.74-21.07,50.9c-3.21,3.21-9.17,9.17-4.4,14.82,1.58,1.86,3.37,2.81,5.33,2.81,2.26,0,4.72-1.28,7.3-3.82,19.08-18.72,28.76-40.49,28.76-64.71s-9.68-46-28.76-64.72c-4.83-4.72-9.24-5.02-12.64-1Z"/>
    <path class="cls-1" d="m351.82,136.28c3.91,0,7.63-1.37,11.15-4.11v-9.87c-3.91,3.48-7.22,5.23-9.93,5.23-3.95,0-6.77-2.24-8.48-6.71-1.71-4.48-2.56-11.8-2.56-22s.84-17.65,2.53-22.07c1.69-4.42,4.42-6.63,8.18-6.63,3.13,0,6.26,1.51,9.39,4.53v-9.5c-3.66-2.53-7.02-3.79-10.08-3.79-6.37,0-11.26,3.34-14.7,10.03-3.43,6.69-5.15,15.97-5.15,27.85s1.71,21.02,5.12,27.42c3.41,6.4,8.25,9.61,14.51,9.61Z"/>
    <path class="cls-1" d="m381.14,85.59c-4.23,0-7.53,2.23-9.9,6.7-2.37,4.46-3.55,10.71-3.55,18.75s1.35,14.59,4.06,19c2.7,4.41,6.51,6.62,11.42,6.62,3.63,0,6.96-1.42,9.98-4.27v-8.43c-2.41,3.2-5.17,4.8-8.3,4.8-5.74,0-8.61-5.24-8.61-15.74h17.87c.17-18.28-4.14-27.42-12.96-27.42Zm-5.02,21.02c0-9.03,1.51-13.55,4.54-13.55,3.27,0,4.9,4.52,4.9,13.55h-9.44Z"/>
    <path class="cls-1" d="m420.11,86.13c-3.59,0-6.58,2.01-8.96,6.03h-.21v-5.23h-8.54v48.39h8.54v-35.85c0-.32.68-1.36,2.06-3.12,1.37-1.76,2.91-2.64,4.61-2.64,3.06,0,4.59,2.33,4.59,6.99v34.62h8.53v-34.84c0-4.51-.97-8.04-2.91-10.56-1.94-2.52-4.51-3.79-7.71-3.79Z"/>
    <path class="cls-1" d="m441.96,125.83c0,7.22,2.99,10.82,8.96,10.82,2.13,0,4.64-.62,7.52-1.87v-7.58c-1.89.89-3.41,1.33-4.59,1.33-1.28,0-2.16-.45-2.64-1.36-.48-.9-.72-2.63-.72-5.19v-27.59h7.95v-7.47h-7.95v-12.49h-.74c-4.84,7.85-9.29,14.25-13.34,19.21v.75h5.55v31.44Z"/>
    <path class="cls-1" d="m472.67,116.11c0-4.41.86-9.01,2.58-13.82,1.73-4.8,3.93-7.2,6.59-7.2,1.32,0,2.56.41,3.73,1.23l.64-8.75c-1.35-.96-2.81-1.44-4.38-1.44-2.02,0-3.6.87-4.72,2.61-1.12,1.74-2.54,5.49-4.24,11.26h-.21v-13.07h-8.54v48.39h8.54v-19.21Z"/>
    <path class="cls-1" d="m514.68,129.85c2.74-4.53,4.11-10.76,4.11-18.7s-1.37-14.17-4.11-18.73c-2.74-4.55-6.44-6.83-11.09-6.83s-8.35,2.28-11.07,6.83c-2.72,4.56-4.08,10.8-4.08,18.73s1.36,14.16,4.08,18.7c2.72,4.54,6.41,6.8,11.07,6.8s8.36-2.27,11.09-6.8Zm-17.5-18.7c0-11.63,2.11-17.45,6.32-17.45s6.54,5.81,6.54,17.45-2.11,17.39-6.32,17.39-6.54-5.8-6.54-17.39Z"/>
    <polygon class="cls-1" points="551.23 89.86 551.44 89.87 567.61 135.32 575.24 135.32 575.24 62.33 566.6 62.33 566.6 107.36 566.38 107.46 550.22 62.33 542.59 62.33 542.59 135.32 551.23 135.32 551.23 89.86"/>
    <path class="cls-1" d="m602.85,130.3c1,4.05,3.08,6.08,6.26,6.08,1.75,0,3.96-1.19,6.64-3.57v-6.46c-1.71,1.6-2.83,2.4-3.36,2.4-.89,0-1.33-.94-1.33-2.83v-27.32c0-3.98-1.25-7.15-3.76-9.5-2.51-2.35-5.54-3.52-9.1-3.52-4.27,0-8.57,2.08-12.91,6.24v9.82c4.68-5.3,8.74-7.95,12.18-7.95s5.05,2.1,5.05,6.3v4.64c-6.95,4.02-11.76,7.36-14.41,10.03-2.66,2.67-3.99,5.9-3.99,9.71,0,3.3.95,6.18,2.84,8.62,1.9,2.44,4.11,3.65,6.63,3.65,3.05,0,6.14-2.12,9.26-6.35Zm-6.21-1.76c-1.2,0-2.2-.51-2.97-1.52-.78-1.01-1.17-2.32-1.17-3.92,0-4.34,3.34-8.53,10.03-12.59v12.48c0,.46-.61,1.51-1.83,3.12-1.23,1.62-2.58,2.43-4.06,2.43Z"/>
    <path class="cls-1" d="m645.51,133.98v-8.16c-2.24,1.82-4.32,2.72-6.25,2.72-3.27,0-5.88-1.56-7.84-4.67-1.96-3.11-2.94-7.32-2.94-12.62s.9-9.69,2.7-12.83c1.8-3.15,4.21-4.72,7.23-4.72,1.68,0,3.79.8,6.35,2.4v-8.75c-2.74-1.18-5.3-1.76-7.68-1.76-5.01,0-9.16,2.42-12.43,7.25-3.27,4.84-4.9,11.07-4.9,18.68s1.65,13.31,4.96,18.03c3.3,4.73,7.43,7.09,12.37,7.09,2.88,0,5.69-.89,8.43-2.67Z"/>
    <path class="cls-1" d="m655.19,71.19c1.35,0,2.51-.48,3.47-1.44.96-.96,1.44-2.11,1.44-3.47s-.48-2.55-1.44-3.49c-.96-.94-2.12-1.41-3.47-1.41s-2.51.47-3.47,1.41c-.96.94-1.44,2.11-1.44,3.49s.48,2.51,1.44,3.47c.96.96,2.12,1.44,3.47,1.44Z"/>
    <rect class="cls-1" x="650.93" y="86.93" width="8.53" height="48.39"/>
    <path class="cls-1" d="m693.58,129.85c2.74-4.53,4.11-10.76,4.11-18.7s-1.37-14.17-4.11-18.73c-2.74-4.55-6.44-6.83-11.1-6.83s-8.35,2.28-11.07,6.83c-2.72,4.56-4.08,10.8-4.08,18.73s1.36,14.16,4.08,18.7c2.72,4.54,6.41,6.8,11.07,6.8s8.36-2.27,11.1-6.8Zm-10.96-1.3c-4.36,0-6.54-5.8-6.54-17.39s2.11-17.45,6.32-17.45,6.53,5.81,6.53,17.45-2.11,17.39-6.32,17.39Z"/>
    <path class="cls-1" d="m714.1,99.46c0-.32.68-1.36,2.05-3.12s2.91-2.64,4.62-2.64c3.06,0,4.59,2.33,4.59,6.99v34.62h8.54v-34.84c0-4.51-.98-8.04-2.91-10.56-1.94-2.52-4.51-3.79-7.71-3.79-3.59,0-6.58,2.01-8.96,6.03h-.21v-5.23h-8.54v48.39h8.54v-35.85Z"/>
    <path class="cls-1" d="m745.33,114.67c-2.66,2.67-3.99,5.9-3.99,9.71,0,3.3.95,6.18,2.84,8.62,1.9,2.44,4.11,3.65,6.63,3.65,3.05,0,6.13-2.12,9.26-6.35,1,4.05,3.09,6.08,6.26,6.08,1.75,0,3.97-1.19,6.64-3.57v-6.46c-1.71,1.6-2.83,2.4-3.36,2.4-.88,0-1.33-.94-1.33-2.83v-27.32c0-3.98-1.25-7.15-3.76-9.5-2.51-2.35-5.54-3.52-9.1-3.52-4.27,0-8.57,2.08-12.91,6.24v9.82c4.68-5.3,8.74-7.95,12.18-7.95s5.05,2.1,5.05,6.3v4.64c-6.95,4.02-11.76,7.36-14.41,10.03Zm14.41,8.32c0,.46-.61,1.51-1.83,3.12-1.22,1.62-2.58,2.43-4.06,2.43-1.2,0-2.19-.51-2.97-1.52-.78-1.01-1.16-2.32-1.16-3.92,0-4.34,3.34-8.53,10.03-12.59v12.48Z"/>
    <rect class="cls-1" x="777.91" y="62.33" width="8.54" height="72.98"/>
    <polygon class="cls-1" points="410.85 174.73 402.69 154.55 396.62 154.55 396.62 209.53 403.54 209.53 403.1 169.79 403.3 169.62 410.21 187.71 411.5 187.71 418.41 169.62 418.61 169.79 418.17 209.53 425.08 209.53 425.08 154.55 419.01 154.55 410.85 174.73"/>
    <path class="cls-1" d="m441.82,172.08c-3.19,0-5.68,1.68-7.46,5.04-1.78,3.36-2.67,8.07-2.67,14.13s1.02,10.99,3.05,14.31c2.03,3.32,4.9,4.98,8.6,4.98,2.73,0,5.24-1.07,7.51-3.21v-6.35c-1.81,2.41-3.9,3.62-6.25,3.62-4.33,0-6.49-3.95-6.49-11.86h13.46c.14-13.77-3.12-20.66-9.76-20.66Zm-3.78,15.83c0-6.81,1.14-10.21,3.42-10.21,2.46,0,3.69,3.4,3.69,10.21h-7.11Z"/>
    <path class="cls-1" d="m486.1,172.47c-1.66,0-3.01.44-4.04,1.33-1.03.88-2.19,2.26-3.48,4.14-1.85-3.64-4.34-5.47-7.47-5.47-2.73,0-4.98,1.51-6.75,4.55h-.16v-3.94h-6.43v36.46h6.43v-27.01c1.74-2.89,3.41-4.34,5.02-4.34,2.36,0,3.54,1.83,3.54,5.51v25.84h6.43v-27.09c1.63-2.84,3.34-4.26,5.1-4.26,2.3,0,3.46,1.81,3.46,5.43v25.92h6.43v-26.33c0-3.43-.75-6.08-2.25-7.94-1.51-1.86-3.44-2.79-5.83-2.79Z"/>
    <path class="cls-1" d="m510.84,172.07c-3.51,0-6.29,1.72-8.34,5.14-2.05,3.43-3.07,8.13-3.07,14.11s1.02,10.67,3.07,14.08c2.05,3.42,4.83,5.12,8.34,5.12s6.3-1.71,8.36-5.12c2.07-3.42,3.1-8.11,3.1-14.08s-1.03-10.68-3.1-14.11c-2.06-3.43-4.85-5.14-8.36-5.14Zm.1,32.36c-3.28,0-4.92-4.37-4.92-13.1s1.59-13.15,4.76-13.15,4.93,4.38,4.93,13.15-1.59,13.1-4.77,13.1Z"/>
    <path class="cls-1" d="m538.17,174.45c-.85,1.32-1.91,4.14-3.2,8.48h-.16v-9.85h-6.43v36.46h6.43v-14.47c0-3.32.65-6.79,1.95-10.41,1.3-3.62,2.96-5.43,4.97-5.43.99,0,1.93.31,2.82.93l.48-6.59c-1.02-.73-2.12-1.09-3.3-1.09-1.53,0-2.71.66-3.56,1.97Z"/>
    <rect class="cls-1" x="548.06" y="173.08" width="6.43" height="36.46"/>
    <path class="cls-1" d="m551.27,153.83c-1.02,0-1.89.36-2.61,1.07-.72.71-1.09,1.59-1.09,2.63s.36,1.89,1.09,2.61c.73.73,1.59,1.09,2.61,1.09s1.89-.36,2.62-1.09c.72-.72,1.08-1.59,1.08-2.61s-.36-1.92-1.08-2.63c-.73-.71-1.6-1.07-2.62-1.07Z"/>
    <path class="cls-1" d="m580.64,202.46v-20.58c0-3-.95-5.39-2.84-7.16-1.89-1.77-4.17-2.65-6.85-2.65-3.22,0-6.45,1.57-9.73,4.7v7.39c3.53-3.99,6.59-5.99,9.18-5.99s3.81,1.58,3.81,4.74v3.5c-5.24,3.03-8.86,5.55-10.86,7.56-2.01,2.01-3.01,4.45-3.01,7.32,0,2.49.72,4.66,2.14,6.49,1.43,1.83,3.1,2.75,5,2.75,2.3,0,4.62-1.59,6.97-4.78.76,3.05,2.33,4.58,4.72,4.58,1.31,0,2.98-.9,5-2.69v-4.86c-1.29,1.21-2.13,1.81-2.53,1.81-.67,0-1-.71-1-2.13Zm-6.43-2.21c0,.35-.46,1.13-1.38,2.35-.92,1.22-1.94,1.83-3.06,1.83-.91,0-1.65-.38-2.24-1.15-.58-.76-.88-1.75-.88-2.95,0-3.27,2.52-6.43,7.56-9.49v9.41Z"/>
    <polygon class="cls-1" points="617.65 178.75 607.12 178.75 607.12 154.55 600.09 154.55 600.09 209.54 607.12 209.54 607.12 185.34 617.65 185.34 617.65 209.54 624.68 209.54 624.68 154.55 617.65 154.55 617.65 178.75"/>
    <rect class="cls-1" x="632.82" y="173.08" width="6.43" height="36.46"/>
    <path class="cls-1" d="m636.04,153.83c-1.02,0-1.89.36-2.61,1.07-.72.71-1.09,1.59-1.09,2.63s.37,1.89,1.09,2.61c.72.73,1.59,1.09,2.61,1.09s1.89-.36,2.61-1.09c.73-.72,1.09-1.59,1.09-2.61s-.36-1.92-1.09-2.63c-.72-.71-1.59-1.07-2.61-1.07Z"/>
    <path class="cls-1" d="m654.85,188.17c-2.51-3.5-3.76-6-3.76-7.54,0-1.82.86-2.73,2.58-2.73,1.58,0,3.42.86,5.5,2.57v-6.07c-2.01-1.55-4.05-2.33-6.11-2.33-2.28,0-4.16.81-5.65,2.43-1.49,1.62-2.23,3.67-2.23,6.13,0,1.42.31,2.99.92,4.72.62,1.73,2.14,4.4,4.56,8.02,2.43,3.62,3.64,6.26,3.64,7.92,0,.91-.31,1.66-.92,2.25-.62.59-1.38.89-2.3.89-1.85,0-3.96-1.32-6.35-3.94v7.08c2.44,1.98,4.83,2.97,7.2,2.97,2.49,0,4.57-.89,6.23-2.67,1.66-1.78,2.49-4.03,2.49-6.73,0-1.53-.34-3.2-1.03-5-.68-1.81-2.28-4.46-4.78-7.96Z"/>
    <path class="cls-1" d="m674.14,163.68h-.57c-3.64,5.91-6.99,10.73-10.05,14.46v.57h4.18v23.69c0,5.43,2.25,8.15,6.75,8.15,1.61,0,3.49-.47,5.66-1.4v-5.71c-1.42.67-2.57,1-3.46,1-.96,0-1.63-.34-1.99-1.02-.36-.68-.54-1.99-.54-3.91v-20.79h5.99v-5.63h-5.99v-9.4Z"/>
    <path class="cls-1" d="m694.38,172.08c-3.51,0-6.29,1.71-8.34,5.14-2.05,3.43-3.08,8.13-3.08,14.11s1.02,10.67,3.08,14.08c2.05,3.42,4.83,5.12,8.34,5.12s6.3-1.71,8.36-5.12c2.06-3.42,3.1-8.11,3.1-14.08s-1.03-10.68-3.1-14.11c-2.06-3.43-4.85-5.14-8.36-5.14Zm.1,32.36c-3.28,0-4.92-4.37-4.92-13.1s1.59-13.15,4.76-13.15,4.92,4.38,4.92,13.15-1.59,13.1-4.76,13.1Z"/>
    <polygon class="cls-1" points="691.69 167.13 695.43 167.13 701.25 155.11 693.42 155.11 691.69 167.13"/>
    <path class="cls-1" d="m721.71,174.45c-.85,1.32-1.91,4.14-3.2,8.48h-.16v-9.85h-6.43v36.46h6.43v-14.47c0-3.32.65-6.79,1.95-10.41,1.3-3.62,2.96-5.43,4.97-5.43.99,0,1.93.31,2.82.93l.48-6.59c-1.02-.73-2.12-1.09-3.3-1.09-1.53,0-2.71.66-3.56,1.97Z"/>
    <rect class="cls-1" x="731.6" y="173.08" width="6.43" height="36.46"/>
    <path class="cls-1" d="m734.82,153.83c-1.02,0-1.89.36-2.61,1.07-.72.71-1.09,1.59-1.09,2.63s.36,1.89,1.09,2.61c.72.73,1.59,1.09,2.61,1.09s1.89-.36,2.61-1.09c.72-.72,1.09-1.59,1.09-2.61s-.37-1.92-1.09-2.63c-.72-.71-1.59-1.07-2.61-1.07Z"/>
    <path class="cls-1" d="m752.92,200.92c-1.47-2.35-2.21-5.52-2.21-9.51s.67-7.29,2.03-9.67c1.35-2.37,3.17-3.56,5.44-3.56,1.26,0,2.86.61,4.79,1.81v-6.59c-2.07-.88-4-1.33-5.79-1.33-3.78,0-6.9,1.82-9.37,5.47-2.47,3.64-3.7,8.33-3.7,14.07s1.25,10.02,3.74,13.58c2.49,3.56,5.6,5.35,9.33,5.35,2.17,0,4.29-.67,6.35-2.01v-6.15c-1.69,1.37-3.26,2.05-4.71,2.05-2.46,0-4.43-1.17-5.91-3.51Z"/>
    <path class="cls-1" d="m787.47,204.59c-.67,0-1-.71-1-2.13v-20.58c0-3-.94-5.39-2.84-7.16-1.89-1.77-4.17-2.65-6.85-2.65-3.22,0-6.46,1.57-9.73,4.7v7.39c3.53-3.99,6.58-5.99,9.18-5.99s3.81,1.58,3.81,4.74v3.5c-5.24,3.03-8.86,5.55-10.86,7.56-2.01,2.01-3.01,4.45-3.01,7.32,0,2.49.72,4.66,2.15,6.49,1.43,1.83,3.09,2.75,4.99,2.75,2.3,0,4.62-1.59,6.98-4.78.75,3.05,2.33,4.58,4.72,4.58,1.32,0,2.99-.9,5.01-2.69v-4.86c-1.29,1.21-2.13,1.81-2.53,1.81Zm-7.44-4.34c0,.35-.46,1.13-1.38,2.35-.92,1.22-1.94,1.83-3.06,1.83-.91,0-1.65-.38-2.24-1.15-.59-.76-.88-1.75-.88-2.95,0-3.27,2.52-6.43,7.56-9.49v9.41Z"/>
    <path class="cls-1" d="m347.75,175.56c-1.61-1.99-3.49-2.98-5.66-2.98-3.11,0-5.66,1.79-7.64,5.36-1.98,3.58-2.97,8.24-2.97,13.97s1,10.24,2.99,13.62c2,3.38,4.43,5.07,7.29,5.07,2.36,0,4.3-1.12,5.83-3.37h.16v2.81h6.43v-54.99h-6.43v20.5Zm0,25.17c0,.27-.43.91-1.3,1.93-.86,1.02-1.94,1.52-3.22,1.52-3.44,0-5.17-4.03-5.17-12.08,0-4.25.49-7.55,1.48-9.89.99-2.34,2.34-3.51,4.04-3.51,1.92,0,3.31,1.2,4.16,3.62v18.42Z"/>
    <path class="cls-1" d="m370.08,172.59c-3.19,0-5.68,1.68-7.45,5.05-1.79,3.36-2.67,8.07-2.67,14.13s1.01,10.99,3.05,14.31c2.04,3.32,4.91,4.98,8.61,4.98,2.73,0,5.23-1.07,7.51-3.21v-6.35c-1.82,2.42-3.9,3.62-6.25,3.62-4.33,0-6.49-3.95-6.49-11.86h13.47c.13-13.77-3.12-20.66-9.77-20.66Zm-3.78,15.84c0-6.81,1.14-10.21,3.42-10.21,2.47,0,3.7,3.4,3.7,10.21h-7.11Z"/>
    <path class="cls-1" d="m300.92,59.31c-1.04,0-1.87.84-1.87,1.87v158.19c0,1.04.84,1.88,1.87,1.88s1.87-.84,1.87-1.88V61.18c0-1.04-.83-1.87-1.87-1.87Z"/>
  </g>
  <path class="cls-1" d="m154.76,93.25l-42.4,28.78c-5.97,4.05-7.54,12.26-3.49,18.24l28.78,42.41c4.05,5.98,12.26,7.55,18.24,3.49l42.41-28.78c5.97-4.05,7.54-12.26,3.49-18.24l-28.79-42.41c-2.53-3.73-6.68-5.74-10.89-5.74-2.54,0-5.1.73-7.35,2.25"/>
</svg>